<mxfile host="Electron" modified="2024-05-19T05:26:10.911Z" agent="Mozilla/5.0 (Macintosh; Intel Mac OS X 10_15_7) AppleWebKit/537.36 (KHTML, like Gecko) draw.io/24.1.0 Chrome/120.0.6099.109 Electron/28.1.0 Safari/537.36" etag="0Zfc0zhYBFfwxlHceDZ1" version="24.1.0" type="device" pages="6">
  <diagram id="lvZ3acUFS4lNoFtHrA9B" name="第 1 页">
    <mxGraphModel dx="1834" dy="805" grid="1" gridSize="10" guides="1" tooltips="1" connect="1" arrows="1" fold="1" page="0" pageScale="1" pageWidth="827" pageHeight="1169" math="0" shadow="0">
      <root>
        <mxCell id="0" />
        <mxCell id="1" parent="0" />
        <mxCell id="Ph-bpt4KbSCCZtaUAGm7-1" value="" style="ellipse;whiteSpace=wrap;html=1;aspect=fixed;sketch=1;fontFamily=Comic Sans MS;" parent="1" vertex="1">
          <mxGeometry x="80" y="240" width="80" height="80" as="geometry" />
        </mxCell>
        <mxCell id="Ph-bpt4KbSCCZtaUAGm7-2" value="Actor01" style="rounded=1;whiteSpace=wrap;html=1;sketch=1;fontFamily=Comic Sans MS;" parent="1" vertex="1">
          <mxGeometry x="310" y="110" width="120" height="60" as="geometry" />
        </mxCell>
        <mxCell id="Ph-bpt4KbSCCZtaUAGm7-3" value="&lt;span&gt;Actor02&lt;/span&gt;" style="rounded=1;whiteSpace=wrap;html=1;sketch=1;fontFamily=Comic Sans MS;" parent="1" vertex="1">
          <mxGeometry x="510" y="110" width="120" height="60" as="geometry" />
        </mxCell>
        <mxCell id="Ph-bpt4KbSCCZtaUAGm7-4" value="&lt;span&gt;Actor03&lt;/span&gt;" style="rounded=1;whiteSpace=wrap;html=1;sketch=1;fontFamily=Comic Sans MS;" parent="1" vertex="1">
          <mxGeometry x="707" y="110" width="120" height="60" as="geometry" />
        </mxCell>
        <mxCell id="Ph-bpt4KbSCCZtaUAGm7-5" value="&lt;span&gt;Actor01&lt;/span&gt;" style="rounded=1;whiteSpace=wrap;html=1;sketch=1;fontFamily=Comic Sans MS;" parent="1" vertex="1">
          <mxGeometry x="310" y="250" width="120" height="60" as="geometry" />
        </mxCell>
        <mxCell id="Ph-bpt4KbSCCZtaUAGm7-6" value="&lt;span&gt;Actor02&lt;/span&gt;" style="rounded=1;whiteSpace=wrap;html=1;sketch=1;fontFamily=Comic Sans MS;" parent="1" vertex="1">
          <mxGeometry x="510" y="250" width="120" height="60" as="geometry" />
        </mxCell>
        <mxCell id="Ph-bpt4KbSCCZtaUAGm7-7" value="&lt;span&gt;Actor03&lt;/span&gt;" style="rounded=1;whiteSpace=wrap;html=1;sketch=1;fontFamily=Comic Sans MS;" parent="1" vertex="1">
          <mxGeometry x="710" y="250" width="120" height="60" as="geometry" />
        </mxCell>
        <mxCell id="Ph-bpt4KbSCCZtaUAGm7-8" value="&lt;span&gt;Actor01&lt;/span&gt;" style="rounded=1;whiteSpace=wrap;html=1;sketch=1;fontFamily=Comic Sans MS;" parent="1" vertex="1">
          <mxGeometry x="310" y="390" width="120" height="60" as="geometry" />
        </mxCell>
        <mxCell id="Ph-bpt4KbSCCZtaUAGm7-9" value="&lt;span&gt;Actor02&lt;/span&gt;" style="rounded=1;whiteSpace=wrap;html=1;sketch=1;fontFamily=Comic Sans MS;" parent="1" vertex="1">
          <mxGeometry x="510" y="390" width="120" height="60" as="geometry" />
        </mxCell>
        <mxCell id="Ph-bpt4KbSCCZtaUAGm7-10" value="&lt;span&gt;Actor03&lt;/span&gt;" style="rounded=1;whiteSpace=wrap;html=1;sketch=1;fontFamily=Comic Sans MS;" parent="1" vertex="1">
          <mxGeometry x="710" y="390" width="120" height="60" as="geometry" />
        </mxCell>
        <mxCell id="Ph-bpt4KbSCCZtaUAGm7-11" value="" style="endArrow=classic;html=1;rounded=0;sketch=1;fontFamily=Comic Sans MS;" parent="1" edge="1">
          <mxGeometry width="50" height="50" relative="1" as="geometry">
            <mxPoint x="170" y="250" as="sourcePoint" />
            <mxPoint x="280" y="170" as="targetPoint" />
          </mxGeometry>
        </mxCell>
        <mxCell id="Ph-bpt4KbSCCZtaUAGm7-12" value="" style="endArrow=classic;html=1;rounded=0;sketch=1;fontFamily=Comic Sans MS;" parent="1" edge="1">
          <mxGeometry width="50" height="50" relative="1" as="geometry">
            <mxPoint x="180" y="279.5" as="sourcePoint" />
            <mxPoint x="290" y="279.5" as="targetPoint" />
          </mxGeometry>
        </mxCell>
        <mxCell id="Ph-bpt4KbSCCZtaUAGm7-13" value="" style="endArrow=classic;html=1;rounded=0;sketch=1;fontFamily=Comic Sans MS;" parent="1" edge="1">
          <mxGeometry width="50" height="50" relative="1" as="geometry">
            <mxPoint x="170" y="310" as="sourcePoint" />
            <mxPoint x="290" y="400" as="targetPoint" />
          </mxGeometry>
        </mxCell>
        <mxCell id="Ph-bpt4KbSCCZtaUAGm7-14" value="" style="shape=flexArrow;endArrow=classic;html=1;rounded=0;sketch=1;fontFamily=Comic Sans MS;" parent="1" edge="1">
          <mxGeometry width="50" height="50" relative="1" as="geometry">
            <mxPoint x="60" y="170" as="sourcePoint" />
            <mxPoint x="90" y="230" as="targetPoint" />
          </mxGeometry>
        </mxCell>
        <mxCell id="Ph-bpt4KbSCCZtaUAGm7-15" value="这里有个定时任务会定期发送消息" style="rounded=0;whiteSpace=wrap;html=1;sketch=1;fontFamily=Comic Sans MS;" parent="1" vertex="1">
          <mxGeometry x="-30" y="100" width="210" height="60" as="geometry" />
        </mxCell>
        <mxCell id="Ph-bpt4KbSCCZtaUAGm7-16" value="" style="endArrow=classic;html=1;rounded=0;sketch=1;fontFamily=Comic Sans MS;" parent="1" edge="1">
          <mxGeometry width="50" height="50" relative="1" as="geometry">
            <mxPoint x="450" y="139.5" as="sourcePoint" />
            <mxPoint x="500" y="139.5" as="targetPoint" />
          </mxGeometry>
        </mxCell>
        <mxCell id="Ph-bpt4KbSCCZtaUAGm7-17" value="" style="endArrow=classic;html=1;rounded=0;sketch=1;fontFamily=Comic Sans MS;" parent="1" edge="1">
          <mxGeometry width="50" height="50" relative="1" as="geometry">
            <mxPoint x="450" y="279.5" as="sourcePoint" />
            <mxPoint x="500" y="279.5" as="targetPoint" />
          </mxGeometry>
        </mxCell>
        <mxCell id="Ph-bpt4KbSCCZtaUAGm7-18" value="" style="endArrow=classic;html=1;rounded=0;sketch=1;fontFamily=Comic Sans MS;" parent="1" edge="1">
          <mxGeometry width="50" height="50" relative="1" as="geometry">
            <mxPoint x="450" y="419.5" as="sourcePoint" />
            <mxPoint x="500" y="419.5" as="targetPoint" />
          </mxGeometry>
        </mxCell>
        <mxCell id="Ph-bpt4KbSCCZtaUAGm7-19" value="" style="endArrow=classic;html=1;rounded=0;sketch=1;fontFamily=Comic Sans MS;" parent="1" edge="1">
          <mxGeometry width="50" height="50" relative="1" as="geometry">
            <mxPoint x="650" y="139.5" as="sourcePoint" />
            <mxPoint x="700" y="139.5" as="targetPoint" />
          </mxGeometry>
        </mxCell>
        <mxCell id="Ph-bpt4KbSCCZtaUAGm7-20" value="" style="endArrow=classic;html=1;rounded=0;sketch=1;fontFamily=Comic Sans MS;" parent="1" edge="1">
          <mxGeometry width="50" height="50" relative="1" as="geometry">
            <mxPoint x="650" y="279.5" as="sourcePoint" />
            <mxPoint x="700" y="279.5" as="targetPoint" />
          </mxGeometry>
        </mxCell>
        <mxCell id="Ph-bpt4KbSCCZtaUAGm7-21" value="" style="endArrow=classic;html=1;rounded=0;sketch=1;fontFamily=Comic Sans MS;" parent="1" edge="1">
          <mxGeometry width="50" height="50" relative="1" as="geometry">
            <mxPoint x="650" y="419.5" as="sourcePoint" />
            <mxPoint x="700" y="419.5" as="targetPoint" />
          </mxGeometry>
        </mxCell>
      </root>
    </mxGraphModel>
  </diagram>
  <diagram id="YpazOXxwljbyg-b6IwQW" name="Router">
    <mxGraphModel dx="1434" dy="805" grid="1" gridSize="10" guides="1" tooltips="1" connect="1" arrows="1" fold="1" page="1" pageScale="1" pageWidth="827" pageHeight="1169" math="0" shadow="0">
      <root>
        <mxCell id="0" />
        <mxCell id="1" parent="0" />
        <mxCell id="1heRO0vWR09tFjsrqA0A-1" value="消息" style="rounded=0;whiteSpace=wrap;html=1;sketch=1;hachureGap=4;jiggle=2;curveFitting=1;fontFamily=Architects Daughter;fontSource=https%3A%2F%2Ffonts.googleapis.com%2Fcss%3Ffamily%3DArchitects%2BDaughter;fontSize=20;" parent="1" vertex="1">
          <mxGeometry x="120" y="585" width="120" height="60" as="geometry" />
        </mxCell>
        <mxCell id="1heRO0vWR09tFjsrqA0A-2" value="Router" style="rounded=0;whiteSpace=wrap;html=1;sketch=1;hachureGap=4;jiggle=2;curveFitting=1;fontFamily=Architects Daughter;fontSource=https%3A%2F%2Ffonts.googleapis.com%2Fcss%3Ffamily%3DArchitects%2BDaughter;fontSize=20;" parent="1" vertex="1">
          <mxGeometry x="360" y="585" width="120" height="60" as="geometry" />
        </mxCell>
        <mxCell id="1heRO0vWR09tFjsrqA0A-3" value="Actor2" style="rounded=0;whiteSpace=wrap;html=1;sketch=1;hachureGap=4;jiggle=2;curveFitting=1;fontFamily=Architects Daughter;fontSource=https%3A%2F%2Ffonts.googleapis.com%2Fcss%3Ffamily%3DArchitects%2BDaughter;fontSize=20;" parent="1" vertex="1">
          <mxGeometry x="620" y="585" width="120" height="60" as="geometry" />
        </mxCell>
        <mxCell id="1heRO0vWR09tFjsrqA0A-4" value="Actor1" style="rounded=0;whiteSpace=wrap;html=1;sketch=1;hachureGap=4;jiggle=2;curveFitting=1;fontFamily=Architects Daughter;fontSource=https%3A%2F%2Ffonts.googleapis.com%2Fcss%3Ffamily%3DArchitects%2BDaughter;fontSize=20;" parent="1" vertex="1">
          <mxGeometry x="620" y="460" width="120" height="60" as="geometry" />
        </mxCell>
        <mxCell id="1heRO0vWR09tFjsrqA0A-5" value="Actor3" style="rounded=0;whiteSpace=wrap;html=1;sketch=1;hachureGap=4;jiggle=2;curveFitting=1;fontFamily=Architects Daughter;fontSource=https%3A%2F%2Ffonts.googleapis.com%2Fcss%3Ffamily%3DArchitects%2BDaughter;fontSize=20;" parent="1" vertex="1">
          <mxGeometry x="620" y="710" width="120" height="60" as="geometry" />
        </mxCell>
        <mxCell id="1heRO0vWR09tFjsrqA0A-6" value="" style="endArrow=classic;html=1;rounded=0;sketch=1;hachureGap=4;jiggle=2;curveFitting=1;fontFamily=Architects Daughter;fontSource=https%3A%2F%2Ffonts.googleapis.com%2Fcss%3Ffamily%3DArchitects%2BDaughter;fontSize=16;" parent="1" edge="1">
          <mxGeometry width="50" height="50" relative="1" as="geometry">
            <mxPoint x="250" y="610" as="sourcePoint" />
            <mxPoint x="340" y="610" as="targetPoint" />
          </mxGeometry>
        </mxCell>
        <mxCell id="1heRO0vWR09tFjsrqA0A-7" value="" style="endArrow=classic;html=1;rounded=0;sketch=1;hachureGap=4;jiggle=2;curveFitting=1;fontFamily=Architects Daughter;fontSource=https%3A%2F%2Ffonts.googleapis.com%2Fcss%3Ffamily%3DArchitects%2BDaughter;fontSize=16;" parent="1" edge="1">
          <mxGeometry width="50" height="50" relative="1" as="geometry">
            <mxPoint x="490" y="610" as="sourcePoint" />
            <mxPoint x="600" y="610" as="targetPoint" />
          </mxGeometry>
        </mxCell>
        <mxCell id="1heRO0vWR09tFjsrqA0A-8" value="" style="endArrow=classic;html=1;rounded=0;sketch=1;hachureGap=4;jiggle=2;curveFitting=1;fontFamily=Architects Daughter;fontSource=https%3A%2F%2Ffonts.googleapis.com%2Fcss%3Ffamily%3DArchitects%2BDaughter;fontSize=16;" parent="1" edge="1">
          <mxGeometry width="50" height="50" relative="1" as="geometry">
            <mxPoint x="490" y="584" as="sourcePoint" />
            <mxPoint x="610" y="500" as="targetPoint" />
          </mxGeometry>
        </mxCell>
        <mxCell id="1heRO0vWR09tFjsrqA0A-9" value="" style="endArrow=classic;html=1;rounded=0;sketch=1;hachureGap=4;jiggle=2;curveFitting=1;fontFamily=Architects Daughter;fontSource=https%3A%2F%2Ffonts.googleapis.com%2Fcss%3Ffamily%3DArchitects%2BDaughter;fontSize=16;" parent="1" edge="1">
          <mxGeometry width="50" height="50" relative="1" as="geometry">
            <mxPoint x="490" y="640" as="sourcePoint" />
            <mxPoint x="610" y="720" as="targetPoint" />
          </mxGeometry>
        </mxCell>
      </root>
    </mxGraphModel>
  </diagram>
  <diagram id="roYgcip_4_e2ZjOz7dDV" name="第 3 页">
    <mxGraphModel dx="1834" dy="1205" grid="1" gridSize="10" guides="1" tooltips="1" connect="1" arrows="1" fold="1" page="0" pageScale="1" pageWidth="827" pageHeight="1169" math="0" shadow="0">
      <root>
        <mxCell id="0" />
        <mxCell id="1" parent="0" />
        <mxCell id="6zT_78Vra0jcK-vtHx6Y-1" value="" style="rounded=0;whiteSpace=wrap;html=1;fontFamily=Comic Sans MS;fontSize=13;" parent="1" vertex="1">
          <mxGeometry x="-280" y="-130" width="180" height="120" as="geometry" />
        </mxCell>
        <mxCell id="6zT_78Vra0jcK-vtHx6Y-2" value="" style="rounded=0;whiteSpace=wrap;html=1;fillColor=#dae8fc;strokeColor=#6c8ebf;fontFamily=Comic Sans MS;fontSize=13;" parent="1" vertex="1">
          <mxGeometry x="-250" y="-90" width="120" height="70" as="geometry" />
        </mxCell>
        <mxCell id="6zT_78Vra0jcK-vtHx6Y-3" value="Service" style="text;html=1;strokeColor=none;fillColor=none;align=center;verticalAlign=middle;whiteSpace=wrap;rounded=0;fontFamily=Comic Sans MS;fontSize=13;" parent="1" vertex="1">
          <mxGeometry x="-220" y="-120" width="60" height="30" as="geometry" />
        </mxCell>
        <mxCell id="6zT_78Vra0jcK-vtHx6Y-4" value="Director node" style="text;html=1;strokeColor=none;fillColor=none;align=center;verticalAlign=middle;whiteSpace=wrap;rounded=0;fontFamily=Comic Sans MS;fontSize=13;" parent="1" vertex="1">
          <mxGeometry x="-240" y="-160" width="100" height="30" as="geometry" />
        </mxCell>
        <mxCell id="6zT_78Vra0jcK-vtHx6Y-5" value="" style="rounded=0;whiteSpace=wrap;html=1;fontFamily=Comic Sans MS;fontSize=13;" parent="1" vertex="1">
          <mxGeometry x="-370" y="120" width="150" height="190" as="geometry" />
        </mxCell>
        <mxCell id="6zT_78Vra0jcK-vtHx6Y-6" value="" style="rounded=0;whiteSpace=wrap;html=1;fontFamily=Comic Sans MS;fontSize=13;" parent="1" vertex="1">
          <mxGeometry x="-180" y="120" width="150" height="190" as="geometry" />
        </mxCell>
        <mxCell id="6zT_78Vra0jcK-vtHx6Y-7" value="Worker" style="rounded=0;whiteSpace=wrap;html=1;fillColor=#dae8fc;strokeColor=#6c8ebf;fontFamily=Comic Sans MS;fontSize=13;" parent="1" vertex="1">
          <mxGeometry x="-355" y="140" width="120" height="60" as="geometry" />
        </mxCell>
        <mxCell id="6zT_78Vra0jcK-vtHx6Y-8" value="Worker" style="rounded=0;whiteSpace=wrap;html=1;fillColor=#dae8fc;strokeColor=#6c8ebf;fontFamily=Comic Sans MS;fontSize=13;" parent="1" vertex="1">
          <mxGeometry x="-355" y="230" width="120" height="60" as="geometry" />
        </mxCell>
        <mxCell id="6zT_78Vra0jcK-vtHx6Y-9" value="Worker" style="rounded=0;whiteSpace=wrap;html=1;fillColor=#dae8fc;strokeColor=#6c8ebf;fontFamily=Comic Sans MS;fontSize=13;" parent="1" vertex="1">
          <mxGeometry x="-165" y="140" width="120" height="60" as="geometry" />
        </mxCell>
        <mxCell id="6zT_78Vra0jcK-vtHx6Y-10" value="Worker" style="rounded=0;whiteSpace=wrap;html=1;fillColor=#dae8fc;strokeColor=#6c8ebf;fontFamily=Comic Sans MS;fontSize=13;" parent="1" vertex="1">
          <mxGeometry x="-165" y="230" width="120" height="60" as="geometry" />
        </mxCell>
        <mxCell id="6zT_78Vra0jcK-vtHx6Y-11" value="1,3 Receives text to prcess&lt;br&gt;&lt;br style=&quot;font-size: 13px;&quot;&gt;2,4 Delegates on a random worker&lt;br style=&quot;font-size: 13px;&quot;&gt;&lt;br&gt;5,6 Return aggregated counts per word - map[string.int]&lt;br style=&quot;font-size: 13px;&quot;&gt;&lt;br&gt;A Cluster name" style="text;html=1;strokeColor=none;fillColor=none;align=left;verticalAlign=middle;whiteSpace=wrap;rounded=0;fontFamily=Comic Sans MS;fontSize=13;" parent="1" vertex="1">
          <mxGeometry x="-30" y="-120" width="360" height="150" as="geometry" />
        </mxCell>
      </root>
    </mxGraphModel>
  </diagram>
  <diagram id="V1iVwuFJ6NRQ7-UvUdT8" name="第 4 页">
    <mxGraphModel dx="1434" dy="805" grid="1" gridSize="10" guides="1" tooltips="1" connect="1" arrows="1" fold="1" page="0" pageScale="1" pageWidth="827" pageHeight="1169" math="0" shadow="0">
      <root>
        <mxCell id="0" />
        <mxCell id="1" parent="0" />
        <mxCell id="HO2jbT488NlP2zfv0Gcz-1" value="HTTP Server" style="rounded=1;whiteSpace=wrap;html=1;fontFamily=Comic Sans MS;" parent="1" vertex="1">
          <mxGeometry x="310" y="290" width="120" height="60" as="geometry" />
        </mxCell>
        <mxCell id="HO2jbT488NlP2zfv0Gcz-2" value="Route" style="rounded=1;whiteSpace=wrap;html=1;fontFamily=Comic Sans MS;" parent="1" vertex="1">
          <mxGeometry x="530" y="160" width="130" height="60" as="geometry" />
        </mxCell>
        <mxCell id="HO2jbT488NlP2zfv0Gcz-4" value="JobStatusActor" style="rounded=1;whiteSpace=wrap;html=1;fontFamily=Comic Sans MS;" parent="1" vertex="1">
          <mxGeometry x="530" y="290" width="130" height="60" as="geometry" />
        </mxCell>
        <mxCell id="HO2jbT488NlP2zfv0Gcz-5" value="JobStatusDao" style="rounded=1;whiteSpace=wrap;html=1;fontFamily=Comic Sans MS;" parent="1" vertex="1">
          <mxGeometry x="530" y="420" width="130" height="60" as="geometry" />
        </mxCell>
        <mxCell id="HO2jbT488NlP2zfv0Gcz-6" value="Service层" style="text;html=1;align=center;verticalAlign=middle;whiteSpace=wrap;rounded=0;fontFamily=Comic Sans MS;" parent="1" vertex="1">
          <mxGeometry x="680" y="306" width="60" height="30" as="geometry" />
        </mxCell>
        <mxCell id="HO2jbT488NlP2zfv0Gcz-7" value="Dao层" style="text;html=1;align=center;verticalAlign=middle;whiteSpace=wrap;rounded=0;fontFamily=Comic Sans MS;" parent="1" vertex="1">
          <mxGeometry x="680" y="431" width="60" height="30" as="geometry" />
        </mxCell>
        <mxCell id="HO2jbT488NlP2zfv0Gcz-9" value="DSL Route" style="text;html=1;align=center;verticalAlign=middle;whiteSpace=wrap;rounded=0;fontFamily=Comic Sans MS;" parent="1" vertex="1">
          <mxGeometry x="665" y="175" width="90" height="30" as="geometry" />
        </mxCell>
      </root>
    </mxGraphModel>
  </diagram>
  <diagram id="lf6cS4PoNE3b6s4I9wJZ" name="Akka拓展-集成 Spring">
    <mxGraphModel dx="2218" dy="1470" grid="1" gridSize="10" guides="1" tooltips="1" connect="1" arrows="1" fold="1" page="0" pageScale="1" pageWidth="827" pageHeight="1169" math="0" shadow="0">
      <root>
        <mxCell id="0" />
        <mxCell id="1" parent="0" />
        <mxCell id="lxvbkm4CZ_-CfKYylfbJ-1" value="" style="rounded=1;whiteSpace=wrap;html=1;fontFamily=Comic Sans MS;" vertex="1" parent="1">
          <mxGeometry x="-70" y="-60" width="180" height="220" as="geometry" />
        </mxCell>
        <mxCell id="lxvbkm4CZ_-CfKYylfbJ-2" value="ApplicationContext" style="rounded=0;whiteSpace=wrap;html=1;fontFamily=Comic Sans MS;" vertex="1" parent="1">
          <mxGeometry x="-40" y="-30" width="120" height="50" as="geometry" />
        </mxCell>
        <mxCell id="lxvbkm4CZ_-CfKYylfbJ-14" style="edgeStyle=orthogonalEdgeStyle;rounded=0;orthogonalLoop=1;jettySize=auto;html=1;entryX=0;entryY=0.5;entryDx=0;entryDy=0;fontFamily=Comic Sans MS;" edge="1" parent="1" source="lxvbkm4CZ_-CfKYylfbJ-3" target="lxvbkm4CZ_-CfKYylfbJ-13">
          <mxGeometry relative="1" as="geometry" />
        </mxCell>
        <mxCell id="lxvbkm4CZ_-CfKYylfbJ-3" value="Create Props" style="rounded=0;whiteSpace=wrap;html=1;fontFamily=Comic Sans MS;" vertex="1" parent="1">
          <mxGeometry x="-40" y="60" width="120" height="70" as="geometry" />
        </mxCell>
        <mxCell id="lxvbkm4CZ_-CfKYylfbJ-4" value="Spring Extension" style="text;html=1;align=center;verticalAlign=middle;whiteSpace=wrap;rounded=0;fontFamily=Comic Sans MS;" vertex="1" parent="1">
          <mxGeometry x="-40" y="-90" width="120" height="30" as="geometry" />
        </mxCell>
        <mxCell id="lxvbkm4CZ_-CfKYylfbJ-5" value="" style="rounded=1;whiteSpace=wrap;html=1;fontFamily=Comic Sans MS;" vertex="1" parent="1">
          <mxGeometry x="360" y="-60" width="180" height="220" as="geometry" />
        </mxCell>
        <mxCell id="lxvbkm4CZ_-CfKYylfbJ-6" value="ActorSystem Bean" style="rounded=0;whiteSpace=wrap;html=1;fontFamily=Comic Sans MS;" vertex="1" parent="1">
          <mxGeometry x="390" y="-20" width="120" height="40" as="geometry" />
        </mxCell>
        <mxCell id="lxvbkm4CZ_-CfKYylfbJ-7" value="Actor Bean" style="rounded=0;whiteSpace=wrap;html=1;fontFamily=Comic Sans MS;" vertex="1" parent="1">
          <mxGeometry x="390" y="30" width="120" height="40" as="geometry" />
        </mxCell>
        <mxCell id="lxvbkm4CZ_-CfKYylfbJ-8" value="Spring Context" style="text;html=1;align=center;verticalAlign=middle;whiteSpace=wrap;rounded=0;fontFamily=Comic Sans MS;" vertex="1" parent="1">
          <mxGeometry x="390" y="-90" width="120" height="30" as="geometry" />
        </mxCell>
        <mxCell id="lxvbkm4CZ_-CfKYylfbJ-9" value="Init Container" style="text;html=1;align=center;verticalAlign=middle;whiteSpace=wrap;rounded=0;fontFamily=Comic Sans MS;" vertex="1" parent="1">
          <mxGeometry x="405" y="-50" width="90" height="30" as="geometry" />
        </mxCell>
        <mxCell id="lxvbkm4CZ_-CfKYylfbJ-10" value="Business Bean" style="rounded=0;whiteSpace=wrap;html=1;fontFamily=Comic Sans MS;" vertex="1" parent="1">
          <mxGeometry x="390" y="80" width="120" height="40" as="geometry" />
        </mxCell>
        <mxCell id="lxvbkm4CZ_-CfKYylfbJ-11" value="......" style="text;html=1;align=center;verticalAlign=middle;whiteSpace=wrap;rounded=0;fontFamily=Comic Sans MS;" vertex="1" parent="1">
          <mxGeometry x="410" y="130" width="80" height="30" as="geometry" />
        </mxCell>
        <mxCell id="lxvbkm4CZ_-CfKYylfbJ-22" style="edgeStyle=orthogonalEdgeStyle;rounded=0;orthogonalLoop=1;jettySize=auto;html=1;entryX=1;entryY=0.75;entryDx=0;entryDy=0;dashed=1;fontFamily=Comic Sans MS;" edge="1" parent="1" source="lxvbkm4CZ_-CfKYylfbJ-13" target="lxvbkm4CZ_-CfKYylfbJ-2">
          <mxGeometry relative="1" as="geometry">
            <Array as="points">
              <mxPoint x="230" y="8" />
            </Array>
          </mxGeometry>
        </mxCell>
        <mxCell id="lxvbkm4CZ_-CfKYylfbJ-13" value="IndirectActor&lt;br&gt;Producer" style="rounded=0;whiteSpace=wrap;html=1;fontFamily=Comic Sans MS;" vertex="1" parent="1">
          <mxGeometry x="170" y="70" width="120" height="50" as="geometry" />
        </mxCell>
        <mxCell id="lxvbkm4CZ_-CfKYylfbJ-15" style="edgeStyle=orthogonalEdgeStyle;rounded=0;orthogonalLoop=1;jettySize=auto;html=1;entryX=-0.017;entryY=0.705;entryDx=0;entryDy=0;entryPerimeter=0;fontFamily=Comic Sans MS;" edge="1" parent="1" source="lxvbkm4CZ_-CfKYylfbJ-13" target="lxvbkm4CZ_-CfKYylfbJ-5">
          <mxGeometry relative="1" as="geometry" />
        </mxCell>
        <mxCell id="lxvbkm4CZ_-CfKYylfbJ-16" value="Get&lt;br&gt;Bean" style="text;html=1;align=center;verticalAlign=middle;whiteSpace=wrap;rounded=0;fontFamily=Comic Sans MS;" vertex="1" parent="1">
          <mxGeometry x="290" y="80" width="60" height="30" as="geometry" />
        </mxCell>
        <mxCell id="lxvbkm4CZ_-CfKYylfbJ-17" value="DI" style="text;html=1;align=center;verticalAlign=middle;whiteSpace=wrap;rounded=0;fontFamily=Comic Sans MS;" vertex="1" parent="1">
          <mxGeometry x="100" y="73" width="60" height="30" as="geometry" />
        </mxCell>
        <mxCell id="lxvbkm4CZ_-CfKYylfbJ-19" value="Reference" style="text;html=1;align=center;verticalAlign=middle;whiteSpace=wrap;rounded=0;fontFamily=Comic Sans MS;" vertex="1" parent="1">
          <mxGeometry x="180" y="-50" width="80" height="30" as="geometry" />
        </mxCell>
        <mxCell id="lxvbkm4CZ_-CfKYylfbJ-21" value="" style="endArrow=classic;html=1;rounded=0;fontFamily=Comic Sans MS;" edge="1" parent="1">
          <mxGeometry width="50" height="50" relative="1" as="geometry">
            <mxPoint x="80" y="-10" as="sourcePoint" />
            <mxPoint x="350" y="-10" as="targetPoint" />
          </mxGeometry>
        </mxCell>
        <mxCell id="lxvbkm4CZ_-CfKYylfbJ-23" value="Create Actor" style="rounded=0;whiteSpace=wrap;html=1;fontFamily=Comic Sans MS;" vertex="1" parent="1">
          <mxGeometry x="-290" y="60" width="120" height="70" as="geometry" />
        </mxCell>
        <mxCell id="lxvbkm4CZ_-CfKYylfbJ-24" value="" style="endArrow=classic;html=1;rounded=0;fontFamily=Comic Sans MS;" edge="1" parent="1">
          <mxGeometry width="50" height="50" relative="1" as="geometry">
            <mxPoint x="-170" y="79" as="sourcePoint" />
            <mxPoint x="-50" y="80" as="targetPoint" />
          </mxGeometry>
        </mxCell>
        <mxCell id="lxvbkm4CZ_-CfKYylfbJ-25" value="ActorName" style="text;html=1;align=center;verticalAlign=middle;whiteSpace=wrap;rounded=0;fontFamily=Comic Sans MS;" vertex="1" parent="1">
          <mxGeometry x="-150" y="50" width="60" height="30" as="geometry" />
        </mxCell>
        <mxCell id="lxvbkm4CZ_-CfKYylfbJ-26" value="" style="endArrow=classic;html=1;rounded=0;fontFamily=Comic Sans MS;" edge="1" parent="1">
          <mxGeometry width="50" height="50" relative="1" as="geometry">
            <mxPoint x="-40" y="119" as="sourcePoint" />
            <mxPoint x="-160" y="119" as="targetPoint" />
          </mxGeometry>
        </mxCell>
        <mxCell id="lxvbkm4CZ_-CfKYylfbJ-27" value="Props(DI)" style="text;html=1;align=center;verticalAlign=middle;whiteSpace=wrap;rounded=0;fontFamily=Comic Sans MS;" vertex="1" parent="1">
          <mxGeometry x="-140" y="90" width="60" height="30" as="geometry" />
        </mxCell>
      </root>
    </mxGraphModel>
  </diagram>
  <diagram id="RGKq_EuhQvAvkXRNT3ep" name="Akkajob">
    <mxGraphModel dx="2234" dy="1205" grid="1" gridSize="10" guides="1" tooltips="1" connect="1" arrows="1" fold="1" page="0" pageScale="1" pageWidth="827" pageHeight="1169" math="0" shadow="0">
      <root>
        <mxCell id="0" />
        <mxCell id="1" parent="0" />
        <mxCell id="Tx39ux67QuHeiAIArCgh-3" value="master 01" style="rounded=1;whiteSpace=wrap;html=1;" vertex="1" parent="1">
          <mxGeometry x="-660" y="-170" width="120" height="60" as="geometry" />
        </mxCell>
        <mxCell id="Tx39ux67QuHeiAIArCgh-4" value="master 02" style="rounded=1;whiteSpace=wrap;html=1;" vertex="1" parent="1">
          <mxGeometry x="-470" y="-170" width="120" height="60" as="geometry" />
        </mxCell>
        <mxCell id="Tx39ux67QuHeiAIArCgh-5" value="Nginx" style="rounded=0;whiteSpace=wrap;html=1;" vertex="1" parent="1">
          <mxGeometry x="-560" y="-40" width="100" height="40" as="geometry" />
        </mxCell>
        <mxCell id="Tx39ux67QuHeiAIArCgh-6" value="" style="endArrow=classic;html=1;rounded=0;entryX=0;entryY=0;entryDx=0;entryDy=0;fontFamily=Comic Sans MS;fontSize=12;" edge="1" parent="1" target="Tx39ux67QuHeiAIArCgh-5">
          <mxGeometry width="50" height="50" relative="1" as="geometry">
            <mxPoint x="-600" y="-110" as="sourcePoint" />
            <mxPoint x="-570" y="-70" as="targetPoint" />
          </mxGeometry>
        </mxCell>
        <mxCell id="Tx39ux67QuHeiAIArCgh-7" value="" style="endArrow=classic;html=1;rounded=0;entryX=1;entryY=0;entryDx=0;entryDy=0;fontFamily=Comic Sans MS;fontSize=12;" edge="1" parent="1" target="Tx39ux67QuHeiAIArCgh-5">
          <mxGeometry width="50" height="50" relative="1" as="geometry">
            <mxPoint x="-410" y="-110" as="sourcePoint" />
            <mxPoint x="-430" y="-70" as="targetPoint" />
          </mxGeometry>
        </mxCell>
        <mxCell id="Tx39ux67QuHeiAIArCgh-8" value="Worker 01" style="rounded=1;whiteSpace=wrap;html=1;" vertex="1" parent="1">
          <mxGeometry x="-680" y="160" width="100" height="40" as="geometry" />
        </mxCell>
        <mxCell id="Tx39ux67QuHeiAIArCgh-9" value="" style="endArrow=classic;html=1;rounded=0;entryX=0.5;entryY=1;entryDx=0;entryDy=0;" edge="1" parent="1" target="Tx39ux67QuHeiAIArCgh-5">
          <mxGeometry width="50" height="50" relative="1" as="geometry">
            <mxPoint x="-630" y="160" as="sourcePoint" />
            <mxPoint x="-580" y="110" as="targetPoint" />
          </mxGeometry>
        </mxCell>
        <mxCell id="Tx39ux67QuHeiAIArCgh-10" value="1. 获取 master list&lt;br&gt;refreshServer()" style="text;html=1;align=center;verticalAlign=middle;whiteSpace=wrap;rounded=0;fillColor=#dae8fc;strokeColor=#6c8ebf;" vertex="1" parent="1">
          <mxGeometry x="-700" y="90" width="120" height="40" as="geometry" />
        </mxCell>
        <mxCell id="Tx39ux67QuHeiAIArCgh-13" value="2. 心跳&amp;nbsp;&lt;div&gt;WorkerHeartbeatActor&lt;/div&gt;" style="rounded=0;whiteSpace=wrap;html=1;" vertex="1" parent="1">
          <mxGeometry x="-670" y="250" width="190" height="60" as="geometry" />
        </mxCell>
        <mxCell id="Tx39ux67QuHeiAIArCgh-15" value="master&amp;nbsp;" style="rounded=1;whiteSpace=wrap;html=1;fillColor=#f8cecc;strokeColor=#b85450;" vertex="1" parent="1">
          <mxGeometry x="670" y="-140" width="140" height="60" as="geometry" />
        </mxCell>
        <mxCell id="Tx39ux67QuHeiAIArCgh-16" value="worker" style="rounded=1;whiteSpace=wrap;html=1;fillColor=#f5f5f5;fontColor=#333333;strokeColor=#666666;" vertex="1" parent="1">
          <mxGeometry x="40" y="320" width="140" height="60" as="geometry" />
        </mxCell>
        <mxCell id="Tx39ux67QuHeiAIArCgh-18" value="&lt;div style=&quot;font-size: 12px;&quot;&gt;&lt;div style=&quot;font-size: 12px;&quot;&gt;WorkerHeartbeatActor&lt;br style=&quot;font-size: 12px;&quot;&gt;&lt;div style=&quot;font-size: 12px;&quot;&gt;&lt;div style=&quot;font-size: 12px;&quot;&gt;WorkerHeartbeatActor &lt;span style=&quot;font-size: 12px;&quot;&gt;extends &lt;/span&gt;AbstractActor&lt;/div&gt;&lt;/div&gt;&lt;/div&gt;&lt;/div&gt;" style="text;html=1;align=center;verticalAlign=middle;whiteSpace=wrap;rounded=0;fillColor=#dae8fc;strokeColor=#6c8ebf;labelBackgroundColor=none;fontFamily=Comic Sans MS;fontSize=12;" vertex="1" parent="1">
          <mxGeometry x="40" y="-170" width="300" height="50" as="geometry" />
        </mxCell>
        <mxCell id="Tx39ux67QuHeiAIArCgh-20" value="" style="curved=1;endArrow=classic;html=1;rounded=0;exitX=0;exitY=0.5;exitDx=0;exitDy=0;entryX=0;entryY=0.5;entryDx=0;entryDy=0;dashed=1;fillColor=#dae8fc;strokeColor=#6c8ebf;" edge="1" parent="1" source="Tx39ux67QuHeiAIArCgh-16" target="Tx39ux67QuHeiAIArCgh-15">
          <mxGeometry width="50" height="50" relative="1" as="geometry">
            <mxPoint y="290" as="sourcePoint" />
            <mxPoint x="120" y="10" as="targetPoint" />
            <Array as="points">
              <mxPoint x="50" y="290" />
              <mxPoint x="80" y="-180" />
            </Array>
          </mxGeometry>
        </mxCell>
        <mxCell id="Tx39ux67QuHeiAIArCgh-23" value="&lt;div style=&quot;font-size: 12px;&quot;&gt;&lt;div style=&quot;font-size: 12px;&quot;&gt;&lt;div style=&quot;font-size: 12px;&quot;&gt;&lt;div style=&quot;font-size: 12px;&quot;&gt;WorkerPersistentActor &lt;span style=&quot;font-size: 12px;&quot;&gt;extends &lt;/span&gt;AbstractPersistentActorWithAtLeastOnceDelivery&lt;/div&gt;&lt;/div&gt;&lt;/div&gt;&lt;/div&gt;" style="rounded=0;whiteSpace=wrap;html=1;labelBackgroundColor=none;fontFamily=Comic Sans MS;fontSize=12;fillColor=#ffe6cc;strokeColor=#d79b00;" vertex="1" parent="1">
          <mxGeometry x="550" y="360" width="400" height="50" as="geometry" />
        </mxCell>
        <mxCell id="Tx39ux67QuHeiAIArCgh-27" style="edgeStyle=orthogonalEdgeStyle;rounded=0;orthogonalLoop=1;jettySize=auto;html=1;entryX=0;entryY=0.5;entryDx=0;entryDy=0;" edge="1" parent="1" source="Tx39ux67QuHeiAIArCgh-24" target="Tx39ux67QuHeiAIArCgh-23">
          <mxGeometry relative="1" as="geometry" />
        </mxCell>
        <mxCell id="Tx39ux67QuHeiAIArCgh-28" style="edgeStyle=orthogonalEdgeStyle;rounded=0;orthogonalLoop=1;jettySize=auto;html=1;" edge="1" parent="1" source="Tx39ux67QuHeiAIArCgh-24" target="Tx39ux67QuHeiAIArCgh-26">
          <mxGeometry relative="1" as="geometry" />
        </mxCell>
        <mxCell id="Tx39ux67QuHeiAIArCgh-24" value="&lt;div style=&quot;font-size: 12px;&quot;&gt;&lt;div style=&quot;font-size: 12px;&quot;&gt;WorkerPersistentRoutingActor&lt;br&gt;&lt;/div&gt;&lt;div style=&quot;font-size: 12px;&quot;&gt;WorkerPersistentRoutingActor &lt;span style=&quot;font-size: 12px;&quot;&gt;extends &lt;/span&gt;UntypedAbstractActor&lt;/div&gt;&lt;/div&gt;" style="rounded=0;whiteSpace=wrap;html=1;labelBackgroundColor=none;fontFamily=Comic Sans MS;fontSize=12;fillColor=#d5e8d4;strokeColor=#82b366;" vertex="1" parent="1">
          <mxGeometry x="50" y="510" width="400" height="50" as="geometry" />
        </mxCell>
        <mxCell id="Tx39ux67QuHeiAIArCgh-26" value="&lt;div style=&quot;font-size: 12px;&quot;&gt;&lt;div style=&quot;font-size: 12px;&quot;&gt;&lt;div style=&quot;font-size: 12px;&quot;&gt;&lt;div style=&quot;font-size: 12px;&quot;&gt;WorkerPersistentActor &lt;span style=&quot;font-size: 12px;&quot;&gt;extends &lt;/span&gt;AbstractPersistentActorWithAtLeastOnceDelivery&lt;/div&gt;&lt;/div&gt;&lt;/div&gt;&lt;/div&gt;" style="rounded=0;whiteSpace=wrap;html=1;labelBackgroundColor=none;fontFamily=Comic Sans MS;fontSize=12;fillColor=#ffe6cc;strokeColor=#d79b00;" vertex="1" parent="1">
          <mxGeometry x="550" y="510" width="400" height="50" as="geometry" />
        </mxCell>
        <mxCell id="Tx39ux67QuHeiAIArCgh-29" value="&lt;div style=&quot;font-size: 12px;&quot;&gt;&lt;div style=&quot;font-size: 12px;&quot;&gt;forward&lt;/div&gt;&lt;/div&gt;" style="text;html=1;align=center;verticalAlign=middle;whiteSpace=wrap;rounded=0;fontColor=default;labelBackgroundColor=none;fontFamily=Comic Sans MS;fontSize=12;fillColor=default;" vertex="1" parent="1">
          <mxGeometry x="470" y="510" width="60" height="30" as="geometry" />
        </mxCell>
        <mxCell id="Tx39ux67QuHeiAIArCgh-30" value="&lt;div style=&quot;&quot;&gt;&lt;div style=&quot;&quot;&gt;TaskMasterActor&lt;/div&gt;&lt;div style=&quot;&quot;&gt;&lt;br&gt;TaskMasterActor extends BaseActor&lt;br&gt;&lt;/div&gt;&lt;/div&gt;" style="rounded=0;whiteSpace=wrap;html=1;labelBackgroundColor=none;fontFamily=Comic Sans MS;fontSize=12;fillColor=#fff2cc;strokeColor=#d6b656;" vertex="1" parent="1">
          <mxGeometry x="140" y="720" width="250" height="50" as="geometry" />
        </mxCell>
        <mxCell id="Tx39ux67QuHeiAIArCgh-31" value="&lt;div style=&quot;&quot;&gt;&lt;div style=&quot;&quot;&gt;BaseActor&lt;br&gt;&lt;/div&gt;&lt;div style=&quot;&quot;&gt;&lt;br&gt;&lt;/div&gt;&lt;div style=&quot;&quot;&gt;BaseActor extends AbstractActor&lt;br&gt;&lt;/div&gt;&lt;/div&gt;" style="rounded=0;whiteSpace=wrap;html=1;labelBackgroundColor=none;fontFamily=Comic Sans MS;fontSize=12;fillColor=#fff2cc;strokeColor=#d6b656;" vertex="1" parent="1">
          <mxGeometry x="390" y="720" width="250" height="50" as="geometry" />
        </mxCell>
        <mxCell id="Tx39ux67QuHeiAIArCgh-32" value="" style="curved=1;endArrow=classic;html=1;rounded=0;exitX=0.5;exitY=1;exitDx=0;exitDy=0;entryX=0.75;entryY=1;entryDx=0;entryDy=0;dashed=1;" edge="1" parent="1" source="Tx39ux67QuHeiAIArCgh-31" target="Tx39ux67QuHeiAIArCgh-30">
          <mxGeometry width="50" height="50" relative="1" as="geometry">
            <mxPoint x="-380" y="740" as="sourcePoint" />
            <mxPoint x="-330" y="690" as="targetPoint" />
            <Array as="points">
              <mxPoint x="450" y="830" />
              <mxPoint x="330" y="800" />
            </Array>
          </mxGeometry>
        </mxCell>
        <mxCell id="Tx39ux67QuHeiAIArCgh-33" value="aroundReceive()&lt;br&gt;若发生异常，则告诉发送方 异常信息" style="text;html=1;align=center;verticalAlign=middle;whiteSpace=wrap;rounded=0;fillColor=#fff2cc;strokeColor=#d6b656;" vertex="1" parent="1">
          <mxGeometry x="290" y="820" width="240" height="50" as="geometry" />
        </mxCell>
        <mxCell id="Tx39ux67QuHeiAIArCgh-34" value="" style="rounded=1;whiteSpace=wrap;html=1;fillColor=none;fontColor=#333333;strokeColor=#666666;fontFamily=Comic Sans MS;fontSize=12;" vertex="1" parent="1">
          <mxGeometry x="210" y="1120" width="400" height="320" as="geometry" />
        </mxCell>
        <mxCell id="Tx39ux67QuHeiAIArCgh-35" value="WorkerAkkaConstant.DISPATCHER_HEARTBEAT" style="rounded=0;whiteSpace=wrap;html=1;fontFamily=Comic Sans MS;fontSize=12;" vertex="1" parent="1">
          <mxGeometry x="230" y="1150" width="350" height="50" as="geometry" />
        </mxCell>
        <mxCell id="Tx39ux67QuHeiAIArCgh-36" value="WorkerAkkaConstant.DISPATCHER_PERSISTENT_ROUTING" style="rounded=0;whiteSpace=wrap;html=1;fontFamily=Comic Sans MS;fontSize=12;" vertex="1" parent="1">
          <mxGeometry x="230" y="1220" width="350" height="50" as="geometry" />
        </mxCell>
        <mxCell id="Tx39ux67QuHeiAIArCgh-37" value="WorkerAkkaConstant.DISPATCHER_TASK_MASTE" style="rounded=0;whiteSpace=wrap;html=1;fontFamily=Comic Sans MS;fontSize=12;" vertex="1" parent="1">
          <mxGeometry x="230" y="1290" width="350" height="50" as="geometry" />
        </mxCell>
        <mxCell id="Tx39ux67QuHeiAIArCgh-38" value="WorkerAkkaConstant.DISPATCHER_TASK_CONTAINER" style="rounded=0;whiteSpace=wrap;html=1;fontFamily=Comic Sans MS;fontSize=12;" vertex="1" parent="1">
          <mxGeometry x="230" y="1360" width="350" height="50" as="geometry" />
        </mxCell>
        <mxCell id="Tx39ux67QuHeiAIArCgh-39" value="Dispatcher" style="text;html=1;align=center;verticalAlign=middle;whiteSpace=wrap;rounded=0;fontFamily=Comic Sans MS;fontSize=12;fontStyle=1" vertex="1" parent="1">
          <mxGeometry x="220" y="1070" width="90" height="40" as="geometry" />
        </mxCell>
      </root>
    </mxGraphModel>
  </diagram>
</mxfile>
